<svg width="890" height="559" fill="none" xmlns="http://www.w3.org/2000/svg" xmlns:xlink="http://www.w3.org/1999/xlink">
    <path
        d="M160.1 515.22c0 10.62-3.96 21.96-12.24 28.98-13.68 11.7-26.28 11.52-43.56 11.52H62v-133.2h41.04c16.02 0 31.14.18 42.66 12.96 5.58 6.12 7.92 13.68 7.92 21.96 0 11.34-5.58 21.24-15.48 26.82 14.58 5.04 21.96 15.84 21.96 30.96Zm-39.06-52.74c0-8.46-6.3-10.08-13.32-10.08H94.58v20.7h12.96c7.38 0 13.5-2.16 13.5-10.62Zm6.48 50.58c0-9.54-7.92-11.52-15.84-11.52h-17.1v24.3h16.92c8.46 0 16.02-2.88 16.02-12.78Zm110.603 42.66h-73.98v-133.2h73.98v29.88h-41.4v20.7h40.14v29.88h-40.14v22.86h41.4v29.88Zm79.438-103.32h-40.14v22.68h38.7v29.88h-38.7v50.76h-32.58v-133.2h72.72v29.88Zm142.354 36.72c0 39.42-31.5 69.12-70.56 69.12-37.62 0-70.02-29.16-70.02-67.5 0-9.9 1.62-19.26 5.22-28.44 1.98-5.22 5.22-10.44 8.64-14.94 13.68-18 33.66-27.36 56.34-27.36 38.88 0 70.38 29.88 70.38 69.12Zm-34.02.18c0-20.7-14.4-39.42-36.18-39.42s-36.36 18-36.36 38.88c0 21.24 14.58 39.6 36.72 39.6 21.42 0 35.82-18.72 35.82-39.06Zm140.506 66.42h-38.88l-30.78-43.02h-.36v43.02h-32.58v-133.2h42.12c14.04 0 29.52.36 41.04 9.54 10.98 8.82 16.38 22.5 16.38 36.36 0 20.52-12.06 38.52-33.12 41.94l36.18 45.36Zm-35.64-85.32c0-13.14-10.26-18-21.96-18h-12.42v37.08h12.06c12.78 0 22.32-5.4 22.32-19.08Zm112.017 85.32h-73.98v-133.2h73.98v29.88h-41.4v20.7h40.14v29.88h-40.14v22.86h41.4v29.88Z"
        fill="#FA0"></path>
    <path
        d="M100.26 47.52c0 12.24-4.68 26.64-14.04 34.92C74.7 92.52 62.28 93.96 47.34 93.96H32.58v41.76H0V2.52h43.56c13.68 0 30.06.54 41.04 9.72 10.44 8.82 15.66 21.6 15.66 35.28Zm-32.58.54c0-13.86-11.34-15.66-22.5-15.66h-12.6v31.68h13.86c11.16 0 21.24-2.52 21.24-16.02Zm174.289 21.06c0 39.42-31.5 69.12-70.56 69.12-37.62 0-70.02-29.16-70.02-67.5 0-9.9 1.62-19.26 5.22-28.44 1.98-5.22 5.22-10.44 8.64-14.94 13.68-18 33.66-27.36 56.34-27.36 38.88 0 70.38 29.88 70.38 69.12Zm-34.02.18c0-20.7-14.4-39.42-36.18-39.42s-36.36 18-36.36 38.88c0 21.24 14.58 39.6 36.72 39.6 21.42 0 35.82-18.72 35.82-39.06Zm153.106-.54c0 43.74-25.02 66.96-68.58 66.96h-46.62V2.52h44.1c24.12 0 43.74 3.96 58.86 24.84 8.64 12.06 12.24 26.64 12.24 41.4Zm-34.02.54c0-21.24-9.72-36.9-32.4-36.9h-14.76v73.44h14.58c23.22 0 32.58-14.94 32.58-36.54Zm175.533 16.56c-7.74 31.5-35.1 52.38-67.32 52.38-38.7 0-70.2-30.24-70.2-69.3S396.188 0 434.888 0c24.12 0 45.36 11.16 58.68 31.32 4.32 6.48 7.74 14.04 9 21.78h-35.64c-5.22-13.68-17.28-23.22-32.22-23.22-21.6 0-35.64 18.36-35.64 38.88 0 20.52 14.04 39.6 35.82 39.6 14.94 0 26.1-9.36 32.04-22.5h35.64Zm118.799 49.86h-36.9l-6.48-19.26h-46.26l-7.02 19.26h-36.54l53.46-133.2h26.82l52.92 133.2Zm-52.38-46.26-13.68-45.54h-.54l-13.68 45.54h27.9Zm138.566 7.92c0 27.9-20.16 40.86-46.44 40.86-26.82 0-48.06-13.86-48.06-42.3v-4.32h33.84c0 8.64 3.96 18.18 13.86 18.18 7.02 0 12.96-5.58 12.96-12.78 0-8.64-7.2-11.52-14.22-14.58-3.96-1.8-7.92-3.42-11.88-5.04-17.28-7.2-32.58-17.28-32.58-38.16 0-24.84 23.94-39.24 46.62-39.24 12.96 0 27.54 4.86 36 15.12 6.84 8.46 8.46 15.84 8.82 26.28h-33.66c-1.08-7.38-3.6-12.96-12.24-12.96-5.94 0-11.7 4.14-11.7 10.44 0 1.98.18 3.96 1.26 5.58 3.24 5.4 20.7 12.24 26.28 14.76 17.64 8.1 31.14 17.28 31.14 38.16Zm86.984-64.98h-26.1v103.32h-34.02V32.4h-26.28V2.52h86.4V32.4Zm95.224 64.98c0 27.9-20.16 40.86-46.44 40.86-26.82 0-48.06-13.86-48.06-42.3v-4.32h33.84c0 8.64 3.96 18.18 13.86 18.18 7.02 0 12.96-5.58 12.96-12.78 0-8.64-7.2-11.52-14.22-14.58-3.96-1.8-7.92-3.42-11.88-5.04-17.28-7.2-32.58-17.28-32.58-38.16 0-24.84 23.94-39.24 46.62-39.24 12.96 0 27.54 4.86 36 15.12 6.84 8.46 8.46 15.84 8.82 26.28h-33.66c-1.08-7.38-3.6-12.96-12.24-12.96-5.94 0-11.7 4.14-11.7 10.44 0 1.98.18 3.96 1.26 5.58 3.24 5.4 20.7 12.24 26.28 14.76 17.64 8.1 31.14 17.28 31.14 38.16Z"
        fill="#FF2B00"></path>
    <path
        d="M319.342 275.72h-73.44v-133.2h34.02v103.32h39.42v29.88Zm38.395 0h-34.02v-133.2h34.02v133.2Zm116.684 0h-39.78l-36.36-57.6h-.36v57.6h-34.02v-133.2h34.02v59.94h.36l37.62-59.94h35.64l-44.1 66.42 46.98 66.78Zm74.525 0h-73.98v-133.2h73.98v29.88h-41.4v20.7h40.14v29.88h-40.14v22.86h41.4v29.88Z"
        fill="#F50"></path>
    <path
        d="M357.32 415.72H327.8l-50.76-81-.36.18.9 80.82H245v-133.2h29.34l51.48 83.7.36-.36-1.44-83.34h32.58v133.2Zm80.242 0h-73.98v-133.2h73.98v29.88h-41.4v20.7h40.14v29.88h-40.14v22.86h41.4v29.88ZM564.7 282.52l-44.64 133.2h-35.1l-44.46-133.2h34.92l26.82 93.42h.36l27-93.42h35.1Zm78.062 133.2h-73.98v-133.2h73.98v29.88h-41.4v20.7h40.14v29.88h-40.14v22.86h41.4v29.88Zm111.118 0H715l-30.78-43.02h-.36v43.02h-32.58v-133.2h42.12c14.04 0 29.52.36 41.04 9.54 10.98 8.82 16.38 22.5 16.38 36.36 0 20.52-12.06 38.52-33.12 41.94l36.18 45.36Zm-35.64-85.32c0-13.14-10.26-18-21.96-18h-12.42v37.08h12.06c12.78 0 22.32-5.4 22.32-19.08Z"
        fill="#FF8000"></path>
</svg>